<svg version="1.2" xmlns="http://www.w3.org/2000/svg" viewBox="0 0 120 50" width="120" height="50">
	<title>avs-logo-svg</title>
	<style>
		.s0 { fill: #ffffff } 
	</style>
	<g id="Layer 1">
		<path class="s0" d="m0 48.5h10.9l0.5-0.8c5.9-9.4 9.1-10.7 19.2-10.7h4.2l1.5-6.5h-13.1l12.7-19c-0.7-6.2-2.1-8.6-3.3-9.9z"/>
		<path class="s0" d="m51.3 0.8h-15.8-1.8c0.7 0.8 1.4 1.9 2.1 3.6 0.4 1.4 0.9 3.1 1.2 5.4v0.2c0.3 1.9 0.5 4.2 0.5 6.9l2.3 31.6h14.8z"/>
		<path class="s0" d="m69.6 10.4q0.1 0.4 0.1 0.9c0 1.8-1.5 4.6-4 8.7q-0.5 1-1.1 2l-9.1 15.2-0.5 0.7 0.8 10.6h0.9 1.2l8.8-14.1 8.1-12.9c-0.6-5-2.4-8.7-5.2-11.1z"/>
		<path class="s0" d="m91.9 13.6c0-3.4 5.5-6.3 12-6.3 4.3 0 7.2 0.7 8.8 2.2l5.8-8.4c-4.5-0.7-9.4-1.1-13.5-1.1-18 0-29.4 6.6-29.4 17 0 16.3 26.9 10 26.9 18 0 4.1-5.7 7.4-12.9 7.4-7.9 0-11.1-2.3-17.5-5.3-0.6-0.2-0.7-0.4-1.4-0.7l-2.8 8.7c7.7 3.4 14.3 4.9 22.4 4.9 17.5 0 29.5-7.5 29.7-18.1 0.3-16.6-28.1-10.9-28.1-18.3z"/>
		<path fill-rule="evenodd" class="s0" d="m61.6 0.7l-1.6 5.7c1.1-0.1 5.8-0.6 10 2.5 2.1 1.6 3.6 3.9 4.7 6.7 0.4-5 3.3-9.1 8.4-12.1 1.9-1.1 4.2-2 6.7-2.8z"/>
	</g>
</svg>