<svg width="120" height="50" viewBox="0 0 120 50" fill="none" xmlns="http://www.w3.org/2000/svg">
<path d="M0 48.5054H10.8639L11.3878 47.674C17.306 38.3174 20.4537 36.9626 30.5673 36.9626H34.8383L36.3346 30.4759H23.2283L35.8819 11.5094C35.2365 5.33494 33.8072 2.9251 32.5959 1.58301L0 48.5054Z" fill="#62B22B"/>
<path d="M51.2726 0.827637H35.4629H33.7109C34.3857 1.59997 35.115 2.68461 35.7521 4.42764C36.2467 5.77395 36.6868 7.51697 37.0095 9.82131L37.0179 9.80865L37.0305 9.96902C37.2903 11.8809 37.4664 14.1683 37.5292 16.9327L39.7926 48.5097H54.5628L51.2726 0.827637Z" fill="#62B22B"/>
<path d="M69.6093 10.408C69.6722 10.6907 69.7016 10.9904 69.7016 11.3153C69.7016 13.0879 68.1675 15.9493 65.7449 20.0431C65.3845 20.6551 65.0031 21.2882 64.6049 21.955L55.451 37.178L55.0403 37.8574L55.7738 48.5055H56.7126H57.8569L66.6922 34.3798L74.7773 21.4527C74.1695 16.4642 72.4217 12.7587 69.6093 10.408Z" fill="#62B22B"/>
<path d="M91.9031 13.6071C91.9031 10.2139 97.3728 7.27224 103.89 7.27224C108.228 7.27224 111.078 7.96016 112.713 9.47107L118.522 1.11045C114.025 0.439408 109.117 0.0300293 105.014 0.0300293C86.9574 0.0300293 75.5654 6.59275 75.5654 17.0045C75.5654 33.2952 102.541 27.0364 102.541 35.034C102.541 39.1067 96.7693 42.4282 89.577 42.4282C81.7098 42.4282 78.4909 40.0901 72.1201 37.0683C71.5207 36.9163 71.374 36.6926 70.6992 36.3888L67.9246 45.1419C75.5653 48.5351 82.1583 49.97 90.3272 49.97C107.788 49.97 119.771 42.4999 119.998 31.8645C120.299 15.3459 91.9031 21.0054 91.9031 13.6071Z" fill="#174897"/>
<path fill-rule="evenodd" clip-rule="evenodd" d="M61.5875 0.735107L59.9822 6.39466C61.0719 6.25117 65.8081 5.84601 69.9575 8.94379C72.0658 10.518 73.6375 12.759 74.6937 15.5909C75.0835 10.6235 77.963 6.45797 83.0973 3.49947C85.0379 2.38106 87.2845 1.46524 89.7741 0.735107H61.5875Z" fill="#62B22B"/>
</svg>
