<?xml version="1.0" encoding="UTF-8"?>
<svg version="1.2" xmlns="http://www.w3.org/2000/svg" viewBox="0 0 150 150" width="150" height="150">
	<style>
		.s0 { fill: #ffffff } 
	</style>
	<path fill-rule="evenodd" class="s0" d="m0 103.9h13.5l0.6-1c7.3-11.6 11.2-13.2 23.7-13.2h5.2l1.8-8h-16.1l15.7-23.5c-0.9-7.7-2.6-10.6-4.1-12.2z"/>
	<path fill-rule="evenodd" class="s0" d="m63.4 45h-19.5-2.3c0.9 1 1.8 2.3 2.6 4.4 0.5 1.8 1.1 3.9 1.5 6.7v0.3c0.4 2.3 0.6 5.1 0.6 8.5l2.9 39h18.3z"/>
	<path fill-rule="evenodd" class="s0" d="m86 56.8q0.1 0.5 0.1 1.2c0 2.2-1.8 5.6-4.9 10.7q-0.6 1.2-1.4 2.5l-11.2 18.8-0.6 0.8 0.9 13.1h1.2 1.4l10.9-17.4 10-15.9c-0.7-6.2-2.9-10.8-6.4-13.8z"/>
	<path fill-rule="evenodd" class="s0" d="m113.5 60.8c0-4.2 6.8-7.8 14.9-7.8 5.3 0 8.9 0.9 10.8 2.7l7.2-10.3c-5.6-0.9-11.6-1.4-16.7-1.4-22.2 0-36.3 8.2-36.3 21 0 20.1 33.2 12.4 33.2 22.2 0 5.1-7 9.2-15.9 9.2-9.8 0-13.7-2.9-21.6-6.6-0.8-0.2-0.9-0.5-1.7-0.8l-3.5 10.7c9.5 4.2 17.7 6.1 27.7 6.1 21.6 0 36.4-9.3 36.7-22.4 0.3-20.5-34.8-13.5-34.8-22.6z"/>
	<path fill-rule="evenodd" class="s0" d="m76.1 44.9l-2 7c1.4-0.1 7.2-0.7 12.4 3.1 2.6 2 4.4 4.8 5.8 8.3 0.5-6.2 4.1-11.3 10.4-15 2.3-1.3 5.2-2.4 8.2-3.4z"/>
	<g id="Layer 1">
	</g>
</svg>