<svg width="20" height="20" viewBox="0 0 20 20" fill="none" xmlns="http://www.w3.org/2000/svg">
<path d="M2.14274 2C1.65526 2 1.20865 2.173 0.846775 2.45198L9.19453 10.0325C9.70392 10.4815 10.2935 10.4808 10.803 10.0325L19.12 2.42687C18.7638 2.16273 18.3291 2 17.8562 2H2.14274ZM19.9277 3.62519C17.2018 6.11763 14.476 8.61263 11.7502 11.1039C10.7497 11.9857 9.24912 11.9857 8.24869 11.1039C5.51972 8.62457 2.78857 6.14483 0.0585897 3.66564C0.0228131 3.81975 0 3.97847 0 4.14274V15.5707C0 16.7454 0.968011 17.7134 2.14274 17.7134H17.8562C19.0309 17.7134 19.9989 16.7454 19.9989 15.5707V4.14274C20.0073 3.95905 19.9667 3.77051 19.9277 3.62519Z" fill="black"/>
</svg>
