<svg width="32" height="32" viewBox="0 0 32 32" fill="none" xmlns="http://www.w3.org/2000/svg">
<circle cx="16" cy="16" r="16" fill="black"/>
<path d="M18.5833 13.6667C18.5833 15.2775 17.2775 16.5833 15.6667 16.5833C14.0558 16.5833 12.75 15.2775 12.75 13.6667C12.75 12.0558 14.0558 10.75 15.6667 10.75C17.2775 10.75 18.5833 12.0558 18.5833 13.6667Z" fill="black"/>
<path d="M15.6667 9C13.0888 9 11 10.9516 11 13.369C11 17.5488 15.6667 23 15.6667 23C15.6667 23 20.3333 17.548 20.3333 13.369C20.3333 10.9525 18.2445 9 15.6667 9ZM15.6667 15.7864C14.9983 15.7864 14.3573 15.5373 13.8848 15.094C13.4122 14.6506 13.1467 14.0494 13.1467 13.4224C13.1467 12.7954 13.4122 12.1941 13.8848 11.7508C14.3573 11.3075 14.9983 11.0584 15.6667 11.0584C16.335 11.0584 16.976 11.3075 17.4486 11.7508C17.9212 12.1941 18.1867 12.7954 18.1867 13.4224C18.1867 14.0494 17.9212 14.6506 17.4486 15.094C16.976 15.5373 16.335 15.7864 15.6667 15.7864Z" fill="white"/>
</svg>
