<svg width="22" height="33" viewBox="0 0 22 33" fill="none" xmlns="http://www.w3.org/2000/svg">
<path d="M17.3333 11.591C17.3333 15.2729 14.3486 18.2577 10.6667 18.2577C6.98476 18.2577 4 15.2729 4 11.591C4 7.90908 6.98476 4.92432 10.6667 4.92432C14.3486 4.92432 17.3333 7.90908 17.3333 11.591Z" fill="white"/>
<path d="M10.6667 0.924316C4.7744 0.924316 0 5.3851 0 10.9106C0 20.4645 10.6667 32.9243 10.6667 32.9243C10.6667 32.9243 21.3333 20.4625 21.3333 10.9106C21.3333 5.3871 16.5589 0.924316 10.6667 0.924316ZM10.6667 16.436C9.13901 16.436 7.67393 15.8667 6.59373 14.8534C5.51352 13.8401 4.90666 12.4657 4.90666 11.0326C4.90666 9.59957 5.51352 8.2252 6.59373 7.21187C7.67393 6.19854 9.13901 5.62926 10.6667 5.62926C12.1943 5.62926 13.6594 6.19854 14.7396 7.21187C15.8198 8.2252 16.4267 9.59957 16.4267 11.0326C16.4267 12.4657 15.8198 13.8401 14.7396 14.8534C13.6594 15.8667 12.1943 16.436 10.6667 16.436Z" fill="#14183E"/>
</svg>
