<svg width="40" height="61" viewBox="0 0 40 61" fill="none" xmlns="http://www.w3.org/2000/svg">
<path d="M32.5 20.1626C32.5 27.1223 26.9036 32.7642 20 32.7642C13.0964 32.7642 7.5 27.1223 7.5 20.1626C7.5 13.2029 13.0964 7.56098 20 7.56098C26.9036 7.56098 32.5 13.2029 32.5 20.1626Z" fill="white"/>
<path d="M20 0C8.952 0 0 8.43198 0 18.8764C0 36.9358 20 60.4878 20 60.4878C20 60.4878 40 36.932 40 18.8764C40 8.43576 31.048 0 20 0ZM20 29.3209C17.1357 29.3209 14.3886 28.2448 12.3632 26.3294C10.3379 24.4139 9.2 21.816 9.2 19.1072C9.2 16.3983 10.3379 13.8004 12.3632 11.885C14.3886 9.96957 17.1357 8.89349 20 8.89349C22.8643 8.89349 25.6114 9.96957 27.6368 11.885C29.6621 13.8004 30.8 16.3983 30.8 19.1072C30.8 21.816 29.6621 24.4139 27.6368 26.3294C25.6114 28.2448 22.8643 29.3209 20 29.3209Z" fill="#CA3737"/>
</svg>
