<svg width="40" height="40" viewBox="0 0 40 40" fill="none" xmlns="http://www.w3.org/2000/svg">
<circle cx="20" cy="20" r="20" fill="#FAF9FE"/>
<path d="M20 12.3438C19.7989 12.3438 19.5998 12.3834 19.414 12.4603C19.2282 12.5373 19.0594 12.6501 18.9172 12.7922C18.7751 12.9344 18.6623 13.1032 18.5853 13.289C18.5084 13.4748 18.4688 13.6739 18.4688 13.875C18.4688 14.0761 18.5084 14.2752 18.5853 14.461C18.6623 14.6468 18.7751 14.8156 18.9172 14.9578C19.0594 15.0999 19.2282 15.2127 19.414 15.2897C19.5998 15.3666 19.7989 15.4062 20 15.4062C20.4061 15.4062 20.7956 15.2449 21.0828 14.9578C21.3699 14.6706 21.5312 14.2811 21.5312 13.875C21.5312 13.4689 21.3699 13.0794 21.0828 12.7922C20.7956 12.5051 20.4061 12.3438 20 12.3438ZM17.375 13.875C17.375 13.1788 17.6516 12.5111 18.1438 12.0188C18.6361 11.5266 19.3038 11.25 20 11.25C20.6962 11.25 21.3639 11.5266 21.8562 12.0188C22.3484 12.5111 22.625 13.1788 22.625 13.875C22.625 14.5712 22.3484 15.2389 21.8562 15.7312C21.3639 16.2234 20.6962 16.5 20 16.5C19.3038 16.5 18.6361 16.2234 18.1438 15.7312C17.6516 15.2389 17.375 14.5712 17.375 13.875ZM25.6875 13.2188C25.3974 13.2188 25.1192 13.334 24.9141 13.5391C24.709 13.7442 24.5938 14.0224 24.5938 14.3125C24.5938 14.6026 24.709 14.8808 24.9141 15.0859C25.1192 15.291 25.3974 15.4062 25.6875 15.4062C25.9776 15.4062 26.2558 15.291 26.4609 15.0859C26.666 14.8808 26.7812 14.6026 26.7812 14.3125C26.7812 14.0224 26.666 13.7442 26.4609 13.5391C26.2558 13.334 25.9776 13.2188 25.6875 13.2188ZM23.5 14.3125C23.5 13.7323 23.7305 13.1759 24.1407 12.7657C24.5509 12.3555 25.1073 12.125 25.6875 12.125C26.2677 12.125 26.8241 12.3555 27.2343 12.7657C27.6445 13.1759 27.875 13.7323 27.875 14.3125C27.875 14.8927 27.6445 15.4491 27.2343 15.8593C26.8241 16.2695 26.2677 16.5 25.6875 16.5C25.1073 16.5 24.5509 16.2695 24.1407 15.8593C23.7305 15.4491 23.5 14.8927 23.5 14.3125ZM13.2188 14.3125C13.2188 14.0224 13.334 13.7442 13.5391 13.5391C13.7442 13.334 14.0224 13.2188 14.3125 13.2188C14.6026 13.2188 14.8808 13.334 15.0859 13.5391C15.291 13.7442 15.4062 14.0224 15.4062 14.3125C15.4062 14.6026 15.291 14.8808 15.0859 15.0859C14.8808 15.291 14.6026 15.4062 14.3125 15.4062C14.0224 15.4062 13.7442 15.291 13.5391 15.0859C13.334 14.8808 13.2188 14.6026 13.2188 14.3125ZM14.3125 12.125C13.7323 12.125 13.1759 12.3555 12.7657 12.7657C12.3555 13.1759 12.125 13.7323 12.125 14.3125C12.125 14.8927 12.3555 15.4491 12.7657 15.8593C13.1759 16.2695 13.7323 16.5 14.3125 16.5C14.8927 16.5 15.4491 16.2695 15.8593 15.8593C16.2695 15.4491 16.5 14.8927 16.5 14.3125C16.5 13.7323 16.2695 13.1759 15.8593 12.7657C15.4491 12.3555 14.8927 12.125 14.3125 12.125ZM16.0625 19.2344C16.0625 18.7412 16.2584 18.2683 16.6071 17.9196C16.9558 17.5709 17.4287 17.375 17.9219 17.375H22.0781C22.5713 17.375 23.0442 17.5709 23.3929 17.9196C23.7416 18.2683 23.9375 18.7412 23.9375 19.2344V23.9375C23.9375 24.9818 23.5227 25.9833 22.7842 26.7217C22.0458 27.4602 21.0443 27.875 20 27.875C18.9557 27.875 17.9542 27.4602 17.2158 26.7217C16.4773 25.9833 16.0625 24.9818 16.0625 23.9375V19.2344ZM20 26.7812C20.7542 26.7812 21.4775 26.4816 22.0108 25.9483C22.5441 25.415 22.8438 24.6917 22.8438 23.9375V19.2344C22.8438 19.0313 22.7631 18.8366 22.6195 18.693C22.4759 18.5494 22.2812 18.4688 22.0781 18.4688H17.9219C17.7188 18.4688 17.5241 18.5494 17.3805 18.693C17.2369 18.8366 17.1562 19.0313 17.1562 19.2344V23.9375C17.1562 24.6917 17.4559 25.415 17.9892 25.9483C18.5225 26.4816 19.2458 26.7812 20 26.7812ZM14.3125 25.4688C14.6784 25.4693 15.0371 25.3675 15.3481 25.1747C15.4439 25.5361 15.5808 25.8804 15.7532 26.2029C15.2865 26.4517 14.7634 26.5754 14.2347 26.5619C13.7061 26.5485 13.1899 26.3984 12.7364 26.1262C12.283 25.8541 11.9078 25.4691 11.6473 25.0089C11.3868 24.5487 11.2499 24.0288 11.25 23.5V19.2348C11.2499 18.9906 11.298 18.7488 11.3914 18.5231C11.4848 18.2975 11.6218 18.0925 11.7944 17.9198C11.9671 17.747 12.1721 17.61 12.3977 17.5166C12.6233 17.4231 12.8652 17.375 13.1094 17.375H15.5156C15.6416 17.375 15.765 17.3877 15.8836 17.4113C15.6111 17.7154 15.4103 18.0768 15.296 18.4688H13.1094C12.9063 18.4688 12.7116 18.5494 12.568 18.693C12.4244 18.8366 12.3438 19.0313 12.3438 19.2344V23.5C12.3438 24.0221 12.5512 24.5229 12.9204 24.8921C13.2896 25.2613 13.7904 25.4688 14.3125 25.4688ZM25.6875 26.5625C25.185 26.5633 24.6901 26.4399 24.2468 26.2033C24.4192 25.8804 24.5561 25.5361 24.6519 25.1747C24.9502 25.3592 25.2923 25.4607 25.6429 25.4686C25.9935 25.4766 26.3398 25.3907 26.6461 25.22C26.9524 25.0492 27.2075 24.7998 27.3851 24.4974C27.5627 24.195 27.6563 23.8507 27.6562 23.5V19.2344C27.6562 19.0313 27.5756 18.8366 27.432 18.693C27.2884 18.5494 27.0937 18.4688 26.8906 18.4688H24.704C24.5896 18.0767 24.3886 17.7154 24.116 17.4113C24.2354 17.3877 24.3584 17.375 24.4844 17.375H26.8906C27.3838 17.375 27.8567 17.5709 28.2054 17.9196C28.5541 18.2683 28.75 18.7412 28.75 19.2344V23.5C28.75 24.3122 28.4273 25.0912 27.853 25.6655C27.2787 26.2398 26.4997 26.5625 25.6875 26.5625Z" fill="#14183E"/>
</svg>
