<svg width="32" height="32" viewBox="0 0 32 32" fill="none" xmlns="http://www.w3.org/2000/svg">
<circle cx="16" cy="16" r="16" fill="black"/>
<path d="M22.9992 19.4372V22.1873C22.9993 22.3842 22.9247 22.5738 22.7905 22.7178C22.6562 22.8619 22.4724 22.9497 22.2759 22.9634C21.9361 22.9868 21.6584 22.9992 21.4438 22.9992C14.5709 22.9992 9 17.4283 9 10.5555C9 10.3408 9.01167 10.0632 9.03578 9.72329C9.04956 9.52687 9.13733 9.34299 9.28139 9.20875C9.42544 9.07451 9.61505 8.99991 9.81196 9H12.562C12.6585 8.9999 12.7516 9.03567 12.8231 9.10034C12.8947 9.16502 12.9397 9.25399 12.9493 9.34998C12.9672 9.52886 12.9836 9.67119 12.9991 9.77929C13.1537 10.8579 13.4704 11.907 13.9386 12.891C14.0125 13.0466 13.9643 13.2324 13.8243 13.332L12.1459 14.5312C13.1721 16.9224 15.0776 18.8279 17.4688 19.8541L18.6665 18.1788C18.7154 18.1104 18.7868 18.0613 18.8683 18.0401C18.9497 18.0189 19.036 18.027 19.1121 18.0629C20.0959 18.5303 21.1448 18.8463 22.223 19.0001C22.3311 19.0157 22.4735 19.032 22.6508 19.0499C22.7466 19.0597 22.8354 19.1048 22.8999 19.1763C22.9645 19.2479 22.9993 19.3408 22.9992 19.4372Z" fill="white"/>
</svg>
